<svg width="48" height="48" viewBox="0 0 48 48" fill="none" xmlns="http://www.w3.org/2000/svg">
<rect width="48" height="48" rx="24" fill="url(#paint0_linear_390_142)"/>
<path d="M13.531 31.069C15.3586 29.5565 22.1016 26.0274 24.9375 28.2961C25.3787 28.6112 25.3156 29.0523 25.5047 29.4305C26.0719 30.3758 35.0836 28.6112 36.5961 22.1832C36.6591 21.8681 36.218 20.9229 36.218 20.9229C35.9029 24.641 30.0421 28.1701 25.9458 26.7837C25.3156 26.5946 25.6307 25.5863 24.8745 25.0821C22.1016 23.3176 16.808 24.767 12.5227 27.2248C12.5227 27.2248 12.9638 29.2414 13.531 31.069Z" fill="white"/>
<path d="M16.4932 38.8203C16.4932 38.8203 17.6906 37.2449 18.7619 36.4886C21.0306 34.7241 24.3076 32.8335 24.8118 34.472C24.8118 34.472 24.8748 34.7241 24.8118 34.9762C24.7488 35.1652 24.9378 35.3543 25.1269 35.2913C33.8866 32.8965 36.7855 27.855 36.7224 23.8848C35.399 28.8003 30.6096 31.321 25.6941 31.8882C25.1899 31.8882 25.7571 31.0059 25.0008 30.5018C22.8582 29.1154 15.863 33.4007 14.8547 34.9131C14.8547 34.9762 16.1151 38.1271 16.4932 38.8203Z" fill="white"/>
<path d="M12.0819 23.6317C18.7619 20.3547 23.0472 20.9849 24.8118 23.1906C25.505 24.0729 25.442 24.7031 25.8201 24.9551C29.3492 26.5936 35.8402 23.2536 35.5251 19.8506C35.5251 19.7245 35.399 19.5355 35.399 19.5355C35.21 19.2834 34.7688 18.9053 34.7688 18.9053C36.0292 23.5057 26.8914 24.7031 25.505 22.5604C25.2529 22.1193 24.8748 20.9849 24.6227 20.6698C23.6774 19.1574 19.4551 16.2585 12.1449 19.9136C12.0819 19.9136 11.8928 21.111 12.0819 23.6317Z" fill="white"/>
<path d="M31.366 17.3934C31.366 17.3934 34.391 17.9606 32.5004 19.6621C31.366 20.6704 25.9464 21.6157 25.6313 18.7799C24.623 10.5243 16.3674 9.83111 12.9014 16.5742C12.9014 16.5742 13.3425 16.3851 13.5316 16.2591C20.9048 12.9821 24.1818 17.7085 24.749 18.7168C24.9381 19.0949 25.1271 19.5361 25.3162 19.9142C25.5683 20.6074 25.6313 23.1912 30.9249 21.7418C34.7691 20.7335 34.8951 17.3934 31.366 17.3934Z" fill="white"/>
<defs>
<linearGradient id="paint0_linear_390_142" x1="22.5" y1="33.5" x2="67.8983" y2="1.67628" gradientUnits="userSpaceOnUse">
<stop stop-color="#00205A"/>
<stop offset="0.345" stop-color="#0075EC"/>
<stop offset="0.925" stop-color="#79BBFF"/>
</linearGradient>
</defs>
</svg>
