<svg width="273" height="36" viewBox="0 0 273 36" fill="none" xmlns="http://www.w3.org/2000/svg">
<path d="M268.609 28.5545C268.691 28.3909 268.773 28.2273 268.936 28.0636C269.1 27.9 269.264 27.8182 269.427 27.7364C269.591 27.6545 269.836 27.6545 270.082 27.6545C270.327 27.6545 270.491 27.6545 270.736 27.7364C270.9 27.8182 271.064 27.9 271.227 28.0636C271.391 28.2273 271.473 28.3909 271.555 28.5545C271.636 28.7182 271.718 28.9636 271.718 29.2091C271.718 29.4545 271.636 29.6182 271.555 29.8636C271.473 30.0273 271.391 30.1909 271.227 30.3545C271.064 30.5182 270.9 30.6 270.736 30.6818C270.573 30.7636 270.327 30.7636 270.082 30.7636C269.836 30.7636 269.673 30.7636 269.427 30.6818C269.264 30.6 269.1 30.5182 268.936 30.3545C268.773 30.1909 268.691 30.0273 268.609 29.8636C268.527 29.7 268.445 29.4545 268.445 29.2091C268.445 28.9636 268.527 28.8 268.609 28.5545ZM268.855 29.7818C268.936 29.9455 269.018 30.1091 269.1 30.1909C269.182 30.2727 269.345 30.4364 269.509 30.5182C269.673 30.6 269.836 30.6 270 30.6C270.164 30.6 270.327 30.6 270.491 30.5182C270.655 30.4364 270.818 30.3545 270.9 30.1909C270.982 30.1091 271.145 29.9455 271.145 29.7818C271.227 29.6182 271.227 29.4545 271.227 29.2091C271.227 29.0455 271.227 28.8818 271.145 28.6364C271.064 28.4727 270.982 28.3091 270.9 28.2273C270.818 28.1455 270.655 27.9818 270.491 27.9818C270.327 27.9 270.164 27.9 270 27.9C269.836 27.9 269.673 27.9 269.509 27.9818C269.345 28.0636 269.182 28.1455 269.1 28.2273C269.018 28.3091 268.855 28.4727 268.855 28.6364C268.773 28.8 268.773 28.9636 268.773 29.2091C268.773 29.3727 268.773 29.6182 268.855 29.7818ZM270.164 28.3091C270.409 28.3091 270.573 28.3909 270.655 28.4727C270.736 28.5545 270.818 28.7182 270.818 28.8818C270.818 29.0455 270.736 29.2091 270.655 29.2909C270.573 29.3727 270.409 29.4545 270.327 29.4545L270.9 30.2727H270.573L270.082 29.4545H269.755V30.2727H269.427V28.3909H270.164V28.3091ZM270 29.1273C270.082 29.1273 270.164 29.1273 270.164 29.1273C270.245 29.1273 270.245 29.1273 270.327 29.1273C270.409 29.1273 270.409 29.0455 270.409 29.0455C270.409 29.0455 270.409 28.9636 270.409 28.8818C270.409 28.8 270.409 28.8 270.409 28.7182L270.327 28.6364C270.327 28.6364 270.245 28.6364 270.164 28.6364C270.082 28.6364 270.082 28.6364 270 28.6364H269.591V29.2091H270V29.1273Z" fill="#00205A"/>
<path d="M2.78175 25.3636C5.15447 23.4 13.909 18.8182 17.5908 21.7636C18.1636 22.1727 18.0817 22.7455 18.3272 23.2364C19.0636 24.4636 30.7636 22.1727 32.7272 13.8273C32.809 13.4182 32.2363 12.1909 32.2363 12.1909C31.8272 17.0182 24.2181 21.6 18.8999 19.8C18.0817 19.5546 18.4908 18.2455 17.509 17.5909C13.909 15.3 7.03629 17.1818 1.47266 20.3727C1.47266 20.3727 2.04538 22.9909 2.78175 25.3636Z" fill="#00205A"/>
<path d="M6.62727 35.4273C6.62727 35.4273 8.18182 33.3818 9.57273 32.4C12.5182 30.1091 16.7727 27.6546 17.4273 29.7818C17.4273 29.7818 17.5091 30.1091 17.4273 30.4364C17.3455 30.6818 17.5909 30.9273 17.8364 30.8455C29.2091 27.7364 32.9727 21.1909 32.8909 16.0364C31.1727 22.4182 24.9545 25.6909 18.5727 26.4273C17.9182 26.4273 18.6545 25.2818 17.6727 24.6273C14.8909 22.8273 5.80909 28.3909 4.5 30.3546C4.5 30.4364 6.13636 34.5273 6.62727 35.4273Z" fill="#00205A"/>
<path d="M0.899986 15.7091C9.57271 11.4545 15.1363 12.2727 17.4273 15.1363C18.3273 16.2818 18.2454 17.1 18.7364 17.4272C23.3182 19.5545 31.7454 15.2182 31.3364 10.8C31.3364 10.6363 31.1727 10.3909 31.1727 10.3909C30.9273 10.0636 30.3545 9.5727 30.3545 9.5727C31.9909 15.5454 20.1273 17.1 18.3273 14.3182C18 13.7454 17.5091 12.2727 17.1818 11.8636C15.9545 9.89998 10.4727 6.13634 0.981804 10.8818C0.899986 10.8818 0.654532 12.4363 0.899986 15.7091Z" fill="#00205A"/>
<path d="M25.9364 7.60899C25.9364 7.60899 29.8636 8.34536 27.4091 10.5544C25.9364 11.8635 18.9 13.0908 18.4909 9.40899C17.1818 -1.30919 6.46362 -2.20919 1.96362 6.54536C1.96362 6.54536 2.53635 6.2999 2.7818 6.13627C12.3545 1.88172 16.6091 8.01809 17.3454 9.32718C17.5909 9.81809 17.8364 10.3908 18.0818 10.8817C18.4091 11.7817 18.4909 15.1363 25.3636 13.2544C30.3545 11.9454 30.5182 7.60899 25.9364 7.60899Z" fill="#00205A"/>
<path d="M39.4363 30.7636V29.6999C42.709 29.4545 42.709 29.3727 42.709 27.3272V8.75448C42.709 6.70902 42.6272 6.62721 39.4363 6.38175V5.31812H50.0726C52.9363 5.31812 55.1454 5.72721 56.6181 6.62721C58.0908 7.69084 58.909 9.16357 58.909 11.209C58.909 14.0727 56.8636 16.1999 53.4272 16.8545V16.9363C57.0272 17.4272 60.0545 19.309 60.0545 23.6454C60.0545 28.7999 56.4545 30.7636 50.8908 30.7636H39.4363ZM46.3908 16.4454H48.8454C52.6908 16.4454 54.9817 14.9727 54.9817 11.3727C54.9817 7.60902 52.0363 6.54539 49.3363 6.62721C46.4726 6.62721 46.3908 6.87266 46.3908 8.42721V16.4454ZM46.3908 26.6727C46.3908 28.9636 46.9636 29.5363 49.909 29.5363C53.0999 29.5363 56.1272 28.3908 56.1272 23.9727C56.1272 20.0454 53.5908 17.7545 49.0908 17.7545H46.4726V26.6727H46.3908Z" fill="#00205A"/>
<path d="M76.5 26.0999C76.5 28.3909 77.1545 29.1272 77.8091 29.2909C78.3818 29.4545 79.2 29.3727 79.6909 29.2909L79.9363 30.1909C78.5454 30.9272 76.9909 31.2545 75.6 31.2545C74.2909 31.2545 73.7182 30.4363 73.2272 29.0454C72.0818 29.7818 70.0363 31.1727 67.7454 31.2545C64.3091 31.2545 62.4272 28.7999 62.4272 26.0181C62.4272 24.2999 63.1636 22.4181 65.8636 21.5999C68.8091 20.6999 72.3272 19.7999 73.2272 18.8181V17.2636C73.2272 14.3181 71.5091 13.5818 70.1182 13.5818C68.6454 13.5818 67.1727 14.4818 66.3545 17.1818C66.1909 17.8363 65.9454 18.2454 65.2091 18.2454C64.4727 18.2454 63.1636 17.6727 63.1636 16.5272C63.1636 14.4818 66.4363 12.3545 70.6091 12.3545C76.1727 12.3545 76.6636 15.1363 76.6636 17.2636V26.0999H76.5ZM73.2272 20.3727C72.4091 20.8636 70.4454 21.5999 68.9727 22.1727C66.9272 22.909 66.1091 23.809 66.1091 25.5272C66.1091 27.7363 67.1727 29.2909 69.4636 29.2909C70.9363 29.2909 73.1454 28.5545 73.1454 25.5272V20.3727H73.2272Z" fill="#00205A"/>
<path d="M98.3453 27.5726C98.3453 29.4545 98.509 29.5363 101.127 29.6999V30.7636H92.1272V29.6999C94.7453 29.5363 94.909 29.4545 94.909 27.5726V18.8999C94.909 15.709 93.5181 14.3181 91.0635 14.3181C89.0999 14.3181 87.4635 15.5454 86.6453 16.9363C86.3181 17.509 86.2362 17.9999 86.2362 18.9817V27.5726C86.2362 29.4545 86.3999 29.5363 89.0181 29.6999V30.7636H80.0181V29.6999C82.6362 29.5363 82.7999 29.4545 82.7999 27.5726V16.0363C82.7999 14.7272 82.5544 14.5636 81.6544 14.3999L80.2635 14.2363V13.3363L85.7453 12.4363L86.2362 15.2181C88.5272 13.7454 90.2453 12.4363 92.9453 12.4363C96.2999 12.4363 98.3453 14.5636 98.3453 18.3272V27.5726Z" fill="#00205A"/>
<path d="M120.273 27.5726C120.273 29.4545 120.436 29.5363 123.054 29.6999V30.7636H114.054V29.6999C116.673 29.5363 116.836 29.4545 116.836 27.5726V18.8999C116.836 15.709 115.445 14.3181 112.991 14.3181C111.027 14.3181 109.391 15.5454 108.573 16.9363C108.245 17.509 108.245 17.9999 108.245 18.9817V27.5726C108.245 29.4545 108.409 29.5363 111.027 29.6999V30.7636H102.027V29.6999C104.645 29.5363 104.809 29.4545 104.809 27.5726V16.0363C104.809 14.7272 104.563 14.5636 103.663 14.3999L102.273 14.2363V13.3363L107.754 12.4363L108.245 15.2181C110.536 13.7454 112.254 12.4363 114.954 12.4363C118.309 12.4363 120.354 14.5636 120.354 18.3272V27.5726H120.273Z" fill="#00205A"/>
<path d="M128.291 21.1091C128.209 24.9545 129.109 29.3727 133.691 29.3727C136.636 29.3727 138.027 27.5727 139.009 25.4454L140.073 26.0182C139.091 28.9636 136.964 31.1727 132.873 31.1727C126.9 31.2545 124.364 27.6545 124.364 21.8454C124.364 16.3636 127.064 12.2727 132.791 12.2727C139.5 12.2727 140.236 17.5091 140.236 19.6363C140.236 20.8636 139.5 21.0273 138.764 21.0273H128.291V21.1091ZM135.245 19.7182C136.309 19.7182 136.473 19.2273 136.473 18.5727C136.473 17.1 136.064 13.6636 132.627 13.6636C128.782 13.6636 128.209 18.2454 128.209 19.8H135.245V19.7182Z" fill="#00205A"/>
<path d="M148.009 15.2999C150.464 13.1727 151.527 12.3545 152.836 12.3545C154.309 12.3545 154.8 13.3363 154.8 14.1545C154.8 15.2999 153.982 16.1999 153.082 16.1999C152.918 16.1999 152.591 16.1999 152.345 16.0363C151.282 15.4636 150.627 15.2181 150.054 15.2181C149.236 15.2181 147.927 16.1999 147.927 18.9818V27.5727C147.927 29.4545 148.173 29.5363 151.445 29.6999V30.7636H141.709V29.6999C144.245 29.5363 144.491 29.4545 144.491 27.5727V16.0363C144.491 14.7272 144.245 14.5636 143.345 14.3999L141.954 14.2363V13.3363L147.518 12.4363L148.009 15.2999Z" fill="#00205A"/>
<path d="M169.609 18.1636V27.1636C169.609 29.2091 169.691 29.2909 172.882 29.5363V30.7636H162.409V29.5363C165.6 29.2909 165.682 29.2091 165.682 27.1636V8.83633C165.682 6.79087 165.6 6.70906 162.409 6.4636V5.23633H172.882V6.4636C169.691 6.62724 169.609 6.79087 169.609 8.83633V16.7727H182.209V8.83633C182.209 6.79087 182.127 6.70906 178.936 6.4636V5.23633H189.409V6.4636C186.218 6.62724 186.136 6.70906 186.136 8.83633V27.2454C186.136 29.2909 186.218 29.3727 189.409 29.6181V30.8454H178.936V29.6181C182.127 29.3727 182.209 29.2909 182.209 27.2454V18.2454H169.609V18.1636Z" fill="#00205A"/>
<path d="M193.582 21.2727C193.5 25.0363 194.482 29.2909 198.982 29.2909C201.845 29.2909 203.236 27.5727 204.218 25.4454L205.364 26.1C204.382 28.9636 202.255 31.2545 198.164 31.2545C191.945 31.2545 189.655 27.7363 189.655 21.9272C189.655 16.4454 192.355 12.2727 198.164 12.2727C204.873 12.2727 205.609 17.5091 205.609 19.7182C205.609 20.9454 204.873 21.1909 204.055 21.1909H193.582V21.2727ZM200.455 19.7182C201.436 19.7182 201.682 19.3091 201.682 18.5727C201.682 17.1 201.273 13.6636 197.918 13.6636C194.155 13.6636 193.582 18.1636 193.582 19.7182H200.455Z" fill="#00205A"/>
<path d="M221.973 25.9364C221.973 28.2273 222.545 28.8818 223.2 29.0455C223.609 29.1273 224.1 29.1273 224.673 29.0455L224.836 30.1909C223.936 30.7636 222.3 31.2546 220.909 31.2546C219.6 31.2546 218.945 30.5182 218.455 29.0455C217.309 29.8636 215.264 31.2546 213.055 31.2546C209.536 31.2546 207.736 28.8 207.736 26.0182C207.736 24.2182 208.555 22.3364 211.173 21.5182C214.036 20.6182 217.555 19.7182 218.536 18.7364V17.4273C218.536 14.5636 217.064 13.6636 215.264 13.6636C213.791 13.6636 212.482 14.4818 211.664 17.1818C211.5 17.8364 211.173 18.2455 210.436 18.2455C209.7 18.2455 208.391 17.6727 208.391 16.4455C208.391 14.4 211.336 12.1909 215.591 12.1909C221.155 12.1909 221.973 15.0546 221.973 17.2636V25.9364ZM218.536 20.3727C217.718 20.8636 215.836 21.6 214.364 22.1727C212.4 22.9909 211.582 23.8909 211.582 25.6091C211.582 27.7364 212.727 29.2909 214.936 29.2909C216.327 29.2909 218.536 28.5546 218.536 25.6909V20.3727Z" fill="#00205A"/>
<path d="M227.782 7.03634C227.782 5.64543 227.618 5.39998 226.636 5.31816L225.245 5.23634V4.1727L231.136 3.27271L231.382 3.51816V27.4909C231.382 29.2909 231.464 29.3727 234.082 29.6182V30.8454H225V29.6182C227.618 29.4545 227.7 29.3727 227.7 27.4909V7.03634H227.782Z" fill="#00205A"/>
<path d="M240.954 14.4001V25.5273C240.954 28.3092 242.1 29.1273 243.327 29.1273C244.227 29.1273 244.8 29.0455 245.7 28.6364L246.027 29.6182C244.8 30.4364 243.327 31.1728 241.527 31.1728C240.218 31.1728 237.436 30.6819 237.436 26.9182V14.4001H234.818V12.7637H237.6L239.891 8.18188H241.036V12.7637H245.7V14.4001H240.954Z" fill="#00205A"/>
<path d="M248.482 7.11816C248.482 5.80907 248.318 5.56361 247.336 5.39998L245.945 5.23634V4.1727L251.755 3.27271L252 3.43634V15.0545C254.291 13.5 255.927 12.2727 258.627 12.2727C262.064 12.2727 264.027 14.4 264.027 18.1636V27.4909C264.027 29.2909 264.273 29.4545 266.727 29.6182V30.8454H257.727V29.6182C260.264 29.4545 260.427 29.2909 260.427 27.4909V18.8182C260.427 15.7091 259.036 14.4 256.582 14.4C254.7 14.4 253.064 15.5454 252.245 17.1C252 17.5909 251.918 18.1636 251.918 19.0636V27.4909C251.918 29.2909 252.164 29.3727 254.618 29.6182V30.8454H245.618V29.6182C248.236 29.4545 248.318 29.2909 248.318 27.4909V7.11816H248.482Z" fill="#00205A"/>
</svg>
