<svg width="48" height="48" viewBox="0 0 48 48" fill="none" xmlns="http://www.w3.org/2000/svg">
<mask id="mask0_396_1129" style="mask-type:alpha" maskUnits="userSpaceOnUse" x="0" y="0" width="48" height="48">
<rect width="48" height="48" rx="24" fill="url(#paint0_linear_396_1129)"/>
</mask>
<g mask="url(#mask0_396_1129)">
<rect width="48" height="48" rx="24" fill="url(#paint1_linear_396_1129)"/>
<path d="M24.0347 25.8495C25.8078 25.8495 27.541 25.3206 29.0153 24.3297C30.4896 23.3388 31.6386 21.9304 32.3171 20.2825C32.9957 18.6347 33.1732 16.8215 32.8273 15.0722C32.4814 13.3228 31.6276 11.716 30.3738 10.4548C29.12 9.1936 27.5227 8.33472 25.7836 7.98676C24.0446 7.6388 22.2421 7.81738 20.604 8.49994C18.9659 9.18249 17.5657 10.3384 16.5807 11.8214C15.5956 13.3044 15.0698 15.0479 15.0698 16.8315C15.0698 19.2232 16.0143 21.517 17.6956 23.2082C19.3768 24.8994 21.6571 25.8495 24.0347 25.8495Z" fill="white"/>
<path d="M38.8306 48.5579C39.4862 48.5579 40.1149 48.2933 40.5784 47.8222C41.042 47.3512 41.3024 46.7124 41.3024 46.0462C41.3024 41.3834 39.4795 36.9115 36.2347 33.6143C32.9899 30.3172 28.5889 28.4648 24.0001 28.4648C19.4112 28.4648 15.0103 30.3172 11.7655 33.6143C8.52067 36.9115 6.69775 41.3834 6.69775 46.0462C6.69775 46.7124 6.95817 47.3512 7.42172 47.8222C7.88526 48.2933 8.51396 48.5579 9.16951 48.5579H38.8306Z" fill="white"/>
</g>
<defs>
<linearGradient id="paint0_linear_396_1129" x1="24" y1="0" x2="24" y2="48" gradientUnits="userSpaceOnUse">
<stop stop-color="#FAAB71"/>
<stop offset="1" stop-color="#FEE0C7"/>
</linearGradient>
<linearGradient id="paint1_linear_396_1129" x1="24" y1="0" x2="24" y2="48" gradientUnits="userSpaceOnUse">
<stop offset="0.39" stop-color="#20AAFA"/>
<stop offset="0.665" stop-color="#5FC8FD"/>
</linearGradient>
</defs>
</svg>
